<svg width="16" height="16" viewBox="0 0 16 16" fill="none" xmlns="http://www.w3.org/2000/svg">
    <mask id="mask0_158_197" style="mask-type:luminance" maskUnits="userSpaceOnUse" x="0" y="0" width="16" height="16">
        <path d="M16 0.5H0V15.5H16V0.5Z" fill="white"/>
    </mask>
    <g mask="url(#mask0_158_197)">
        <path d="M8 15.5C12.4183 15.5 16 12.1421 16 8C16 3.85787 12.4183 0.5 8 0.5C3.58173 0.5 0 3.85787 0 8C0 12.1421 3.58173 15.5 8 15.5Z" fill="url(#paint0_linear_158_197)"/>
        <path fill-rule="evenodd" clip-rule="evenodd" d="M8 2.60938C9.58781 2.60938 11.0253 3.21282 12.0659 4.18837C13.094 5.15229 13.7346 6.47984 13.7498 7.94732V7.95031L13.7499 7.97029L13.75 8L13.7495 8.04969V8.05297C13.7346 9.52045 13.094 10.8477 12.0657 11.8118C11.0253 12.7872 9.58794 13.3906 8 13.3906C6.41219 13.3906 4.97466 12.7872 3.93415 11.8116C2.89364 10.8361 2.25 9.48828 2.25 7.99971C2.25 6.51113 2.89364 5.1635 3.93415 4.18809C4.97466 3.21254 6.41219 2.60938 8 2.60938ZM11.3049 5.70758C11.5228 5.70758 11.7343 5.73453 11.9357 5.78459C11.3427 5.24504 10.534 4.91288 9.64244 4.91288C8.73306 4.91288 7.90981 5.25832 7.31406 5.81702C6.71819 6.37561 6.34963 7.14758 6.34963 8C6.34963 8.85242 6.71819 9.62439 7.31406 10.1829C7.90994 10.7415 8.73325 11.087 9.64244 11.087C10.534 11.087 11.3429 10.7547 11.9357 10.2153C11.7345 10.2655 11.5231 10.2923 11.3051 10.2923C10.6301 10.2923 10.0186 10.0357 9.57631 9.62088C9.13381 9.20603 8.86012 8.63287 8.86012 7.99988C8.86012 7.36689 9.13381 6.79367 9.57631 6.37889C10.0183 5.96436 10.6295 5.70758 11.3049 5.70758ZM12.4576 6.91924C12.1625 6.64279 11.7551 6.47164 11.3047 6.47164C10.8545 6.47164 10.4469 6.64279 10.1518 6.91924C9.85675 7.19586 9.67444 7.57795 9.67444 8.00012C9.67444 8.42229 9.85706 8.80443 10.1518 9.08105C10.4469 9.3575 10.8544 9.52865 11.3047 9.52865C11.7551 9.52865 12.1625 9.3575 12.4576 9.08105C12.7524 8.80443 12.935 8.42229 12.935 8.00012L12.9347 7.98043C12.9294 7.56605 12.7479 7.19146 12.4576 6.91924ZM9.64213 4.14883C10.1543 4.14883 10.6443 4.23666 11.0966 4.39727C10.2498 3.75689 9.17256 3.37343 7.99988 3.37343C6.63725 3.37343 5.40326 3.89136 4.51008 4.72847C3.61718 5.56557 3.06475 6.72236 3.06475 8C3.06475 9.27775 3.61704 10.4345 4.51008 11.2716C5.40313 12.1088 6.63694 12.6267 7.99988 12.6267C9.17269 12.6267 10.2496 12.2432 11.0966 11.6028C10.6443 11.7634 10.1543 11.8512 9.64213 11.8512C8.50794 11.8512 7.48075 11.4201 6.73756 10.7232C5.99433 10.0263 5.53444 9.06354 5.53444 8.00012C5.53444 6.93676 5.99433 5.97379 6.73756 5.27691C7.48075 4.57989 8.50794 4.14883 9.64213 4.14883Z" fill="white"/>
    </g>
    <defs>
        <linearGradient id="paint0_linear_158_197" x1="-0.125341" y1="15.2293" x2="14.6487" y2="0.273459" gradientUnits="userSpaceOnUse">
            <stop stop-color="#04BF77"/>
            <stop offset="0.612453" stop-color="#04D082"/>
            <stop offset="1" stop-color="#04D484"/>
        </linearGradient>
    </defs>
</svg>
