<svg width="18" height="19" viewBox="0 0 18 19" fill="none" xmlns="http://www.w3.org/2000/svg">
    <path d="M9 0C7.21997 0 5.47991 0.557165 3.99987 1.60104C2.51983 2.64491 1.36628 4.12861 0.685088 5.86451C0.00389957 7.6004 -0.17433 9.51054 0.172936 11.3534C0.520203 13.1962 1.37737 14.8889 2.63604 16.2175C3.89471 17.5461 5.49836 18.4509 7.24419 18.8175C8.99002 19.184 10.7996 18.9959 12.4442 18.2769C14.0887 17.5578 15.4943 16.3402 16.4832 14.7779C17.4722 13.2156 18 11.3789 18 9.5C17.9974 6.98128 17.0484 4.5665 15.3611 2.78549C13.6738 1.00449 11.3862 0.00272419 9 0V0ZM15.4853 5.54167H13.0695C12.5287 4.21878 11.8167 2.98148 10.9538 1.86517C12.8636 2.41373 14.4917 3.73466 15.4853 5.54167ZM12.375 9.5C12.3688 10.306 12.2485 11.1065 12.018 11.875H5.982C5.75149 11.1065 5.63116 10.306 5.625 9.5C5.63116 8.69397 5.75149 7.89345 5.982 7.125H12.018C12.2485 7.89345 12.3688 8.69397 12.375 9.5ZM6.5835 13.4583H11.4165C10.7799 14.7849 9.96612 16.0082 9 17.0905C8.03353 16.0085 7.21968 14.7852 6.5835 13.4583ZM6.5835 5.54167C7.22008 4.21505 8.03389 2.99183 9 1.9095C9.96647 2.99153 10.7803 4.2148 11.4165 5.54167H6.5835ZM7.05 1.86517C6.18575 2.98125 5.47244 4.21855 4.9305 5.54167H2.51475C3.50914 3.73384 5.13875 2.4128 7.05 1.86517ZM1.84575 7.125H4.425C4.23057 7.90016 4.12977 8.69815 4.125 9.5C4.12977 10.3018 4.23057 11.0998 4.425 11.875H1.84575C1.38476 10.3291 1.38476 8.67095 1.84575 7.125ZM2.51475 13.4583H4.9305C5.47244 14.7814 6.18575 16.0188 7.05 17.1348C5.13875 16.5872 3.50914 15.2662 2.51475 13.4583ZM10.9538 17.1348C11.8167 16.0185 12.5287 14.7812 13.0695 13.4583H15.4853C14.4917 15.2653 12.8636 16.5863 10.9538 17.1348ZM16.1542 11.875H13.575C13.7694 11.0998 13.8702 10.3018 13.875 9.5C13.8702 8.69815 13.7694 7.90016 13.575 7.125H16.1528C16.6137 8.67095 16.6137 10.3291 16.1528 11.875H16.1542Z" fill="#707070"/>
</svg>
