<svg width="20" height="17" viewBox="0 0 20 17" fill="none" xmlns="http://www.w3.org/2000/svg">
    <path fill-rule="evenodd" clip-rule="evenodd" d="M18.4324 5.96152C18.2049 6.18845 17.8967 6.31578 17.5754 6.31552H1.21135C0.971962 6.31584 0.737839 6.24525 0.538515 6.11266C0.339192 5.98007 0.183596 5.79143 0.091355 5.57052C-9.28342e-06 5.34873 -0.0235028 5.1048 0.0238491 4.86965C0.0712011 4.63449 0.187268 4.41867 0.357355 4.24952L3.99336 0.611522C4.22485 0.409776 4.52429 0.303421 4.83118 0.313945C5.13807 0.324469 5.42953 0.451089 5.64666 0.66822C5.86379 0.885351 5.99041 1.1768 6.00093 1.48369C6.01146 1.79058 5.9051 2.09003 5.70336 2.32152L4.13936 3.89152H17.5754C17.8149 3.89172 18.0489 3.96288 18.248 4.09601C18.4471 4.22914 18.6023 4.41827 18.694 4.63952C18.7857 4.86078 18.8098 5.10424 18.7632 5.33917C18.7166 5.5741 18.6015 5.78997 18.4324 5.95952V5.96152ZM2.42335 10.5575H18.7864C19.0259 10.5571 19.2602 10.6277 19.4597 10.7603C19.6592 10.8929 19.8149 11.0815 19.9074 11.3025C19.9987 11.5243 20.0222 11.7682 19.9749 12.0034C19.9275 12.2386 19.8114 12.4544 19.6414 12.6235L16.0054 16.2605C15.8968 16.388 15.763 16.4915 15.6124 16.5647C15.4618 16.6379 15.2977 16.6792 15.1304 16.6858C14.9631 16.6925 14.7962 16.6644 14.6403 16.6035C14.4844 16.5425 14.3428 16.4499 14.2244 16.3315C14.106 16.2131 14.0134 16.0715 13.9524 15.9156C13.8914 15.7596 13.8634 15.5928 13.8701 15.4255C13.8767 15.2582 13.918 15.0941 13.9911 14.9435C14.0643 14.7929 14.1679 14.6591 14.2954 14.5505L15.8594 12.9815H2.42335C2.10191 12.9815 1.79364 12.8538 1.56634 12.6265C1.33905 12.3992 1.21135 12.091 1.21135 11.7695C1.21135 11.4481 1.33905 11.1398 1.56634 10.9125C1.79364 10.6852 2.10191 10.5575 2.42335 10.5575Z" fill="#707070"/>
</svg>
