<svg width="20" height="21" viewBox="0 0 20 21" fill="none" xmlns="http://www.w3.org/2000/svg">
    <g clip-path="url(#clip0_146_302)">
        <path d="M2.5 18.8133C2.27899 18.8133 2.06702 18.7255 1.91074 18.5693C1.75446 18.413 1.66667 18.201 1.66667 17.98V0.5H0V17.98C0 18.643 0.263392 19.2789 0.732233 19.7478C1.20107 20.2166 1.83696 20.48 2.5 20.48H20V18.8133H2.5Z" fill="#707070"/>
        <path d="M5.83346 10.5H4.16679V16.3333H5.83346V10.5Z" fill="#707070"/>
        <path d="M9.99988 8.83325H8.3332V16.3333H9.99988V8.83325Z" fill="#707070"/>
        <path d="M14.1667 11.3333H12.5V16.3333H14.1667V11.3333Z" fill="#707070"/>
        <path d="M18.3335 8H16.6668V16.3333H18.3335V8Z" fill="#707070"/>
        <path d="M9.16655 4.17843L13.3332 8.3451L19.7557 1.9226L18.5774 0.744263L13.3332 5.98843L9.16655 1.82176L4.41072 6.5776L5.58905 7.75593L9.16655 4.17843Z" fill="#707070"/>
    </g>
    <defs>
        <clipPath id="clip0_146_302">
            <rect width="20" height="20" fill="white" transform="translate(0 0.5)"/>
        </clipPath>
    </defs>
</svg>
