<svg width="20" height="21" viewBox="0 0 20 21" fill="none" xmlns="http://www.w3.org/2000/svg">
    <path d="M9.16667 9.66667H0V3C0 2.33696 0.263392 1.70107 0.732233 1.23223C1.20107 0.763392 1.83696 0.5 2.5 0.5L9.16667 0.5V9.66667ZM1.66667 8H7.5V2.16667H2.5C2.27899 2.16667 2.06702 2.25446 1.91074 2.41074C1.75446 2.56702 1.66667 2.77899 1.66667 3V8Z" fill="#707070"/>
    <path d="M19.9999 9.66667H10.8332V0.5H17.4999C18.1629 0.5 18.7988 0.763392 19.2676 1.23223C19.7365 1.70107 19.9999 2.33696 19.9999 3V9.66667ZM12.4999 8H18.3332V3C18.3332 2.77899 18.2454 2.56702 18.0891 2.41074C17.9328 2.25446 17.7209 2.16667 17.4999 2.16667H12.4999V8Z" fill="#707070"/>
    <path d="M9.16666 20.4999H2.49999C1.83695 20.4999 1.20107 20.2365 0.732227 19.7677C0.263386 19.2988 -5.72205e-06 18.663 -5.72205e-06 17.9999L-5.72205e-06 11.3333H9.16666V20.4999ZM1.66666 12.9999V17.9999C1.66666 18.2209 1.75446 18.4329 1.91074 18.5892C2.06702 18.7454 2.27898 18.8332 2.49999 18.8332H7.49999V12.9999H1.66666Z" fill="#707070"/>
    <path d="M17.4999 20.4999H10.8332V11.3333H19.9999V17.9999C19.9999 18.663 19.7365 19.2988 19.2676 19.7677C18.7988 20.2365 18.1629 20.4999 17.4999 20.4999ZM12.4999 18.8332H17.4999C17.7209 18.8332 17.9328 18.7454 18.0891 18.5892C18.2454 18.4329 18.3332 18.2209 18.3332 17.9999V12.9999H12.4999V18.8332Z" fill="#707070"/>
</svg>
