<svg width="15" height="21" viewBox="0 0 15 21" fill="none" xmlns="http://www.w3.org/2000/svg">
    <path d="M14.9996 20.4998H13.333V16.2975C13.3323 15.6442 13.0725 15.0178 12.6105 14.5558C12.1485 14.0939 11.5222 13.834 10.8689 13.8334H4.13072C3.4774 13.834 2.85103 14.0939 2.38907 14.5558C1.9271 15.0178 1.66728 15.6442 1.66662 16.2975V20.4998H0V16.2975C0.00132315 15.2023 0.436947 14.1524 1.21132 13.3781C1.98569 12.6037 3.03559 12.1681 4.13072 12.1667H10.8689C11.964 12.1681 13.0139 12.6037 13.7883 13.3781C14.5626 14.1524 14.9983 15.2023 14.9996 16.2975V20.4998Z" fill="#707070"/>
    <path d="M7.49979 10.4997C6.51091 10.4997 5.54424 10.2065 4.72202 9.65709C3.8998 9.1077 3.25895 8.32683 2.88052 7.41323C2.5021 6.49962 2.40308 5.49432 2.596 4.52444C2.78892 3.55456 3.26511 2.66367 3.96436 1.96443C4.6636 1.26518 5.55449 0.788994 6.52437 0.596073C7.49425 0.403152 8.49955 0.502166 9.41316 0.880594C10.3268 1.25902 11.1076 1.89987 11.657 2.72209C12.2064 3.54431 12.4997 4.51098 12.4997 5.49986C12.4983 6.8255 11.9711 8.09647 11.0338 9.03384C10.0964 9.9712 8.82543 10.4984 7.49979 10.4997ZM7.49979 2.16662C6.84054 2.16662 6.19609 2.36211 5.64794 2.72837C5.09979 3.09464 4.67256 3.61522 4.42028 4.22429C4.16799 4.83336 4.10199 5.50356 4.2306 6.15015C4.35921 6.79673 4.67667 7.39066 5.14284 7.85682C5.609 8.32298 6.20292 8.64044 6.84951 8.76906C7.49609 8.89767 8.1663 8.83166 8.77537 8.57938C9.38444 8.32709 9.90502 7.89986 10.2713 7.35171C10.6375 6.80356 10.833 6.15911 10.833 5.49986C10.833 4.61583 10.4819 3.76801 9.85675 3.14291C9.23165 2.5178 8.38382 2.16662 7.49979 2.16662Z" fill="#707070"/>
</svg>
